<svg width="102" height="57" viewBox="0 0 102 57" fill="none" xmlns="http://www.w3.org/2000/svg">
<path d="M44.6508 49.4802C44.0593 50.1456 41.9827 52.0013 40.3987 52.8173C38.8627 53.6333 36.9667 54.3533 34.7107 54.9773C32.4547 55.6013 29.9587 55.8893 27.2227 55.8413C23.0467 55.7453 19.3027 55.0013 15.9907 53.6093C12.7267 52.1693 9.94266 50.2253 7.63866 47.7773C5.38266 45.3293 3.65466 42.5213 2.45466 39.3533C1.25466 36.1853 0.654663 32.8013 0.654663 29.2013C0.654663 25.1693 1.25466 21.4733 2.45466 18.1133C3.70266 14.7533 5.45466 11.8493 7.71066 9.40127C10.0147 6.95327 12.7507 5.05727 15.9187 3.71327C19.0867 2.36927 22.5907 1.69727 26.4307 1.69727C29.9827 1.69727 33.1267 2.17727 35.8627 3.13726C38.5987 4.09726 41.8609 6.11381 43.5889 7.21781C43.5889 7.21781 41.78 9.53243 40.7492 11.3024C39.7183 13.0724 38.8041 16.3596 38.8041 16.3596C37.6041 15.4476 35.6467 14.2493 33.6307 13.2893C31.6627 12.2813 29.3827 11.7773 26.7907 11.7773C24.7747 11.7773 22.8307 12.2093 20.9587 13.0733C19.1347 13.8893 17.5027 15.0653 16.0627 16.6013C14.6707 18.1373 13.5667 19.9373 12.7507 22.0013C11.9347 24.0173 11.5267 26.2253 11.5267 28.6253C11.5267 31.1693 11.8867 33.4973 12.6067 35.6093C13.3747 37.7213 14.4547 39.5453 15.8467 41.0813C17.2387 42.5693 18.8947 43.7213 20.8147 44.5373C22.7827 45.3533 24.9907 45.7613 27.4387 45.7613C30.2707 45.7613 32.6947 45.3053 34.7107 44.3933C36.7267 43.4813 38.2627 42.5213 39.3187 41.5133C39.3187 41.5133 40.516 44.0888 41.6644 45.7613C42.8129 47.4337 44.6508 49.4802 44.6508 49.4802Z" fill="#6C757D"/>
<path d="M51.6408 56.7834L57.7962 50.628C60.0058 52.071 62.362 53.1759 64.8647 53.9425C67.3675 54.7091 69.9717 55.0924 72.6773 55.0924C76.4202 55.0924 79.9375 54.3821 83.2294 52.9617C86.5213 51.5412 89.3848 49.6134 91.8199 47.1783C94.255 44.7432 96.1828 41.8797 97.6033 38.5878C99.0238 35.2959 99.734 31.7785 99.734 28.0357C99.734 25.33 99.3507 22.7258 98.5841 20.2231C97.8175 17.7203 96.7127 15.3641 95.2697 13.1545L101.425 6.99912L97.5695 3.14354L47.7852 52.9278L51.6408 56.7834ZM72.6773 49.681C70.7383 49.681 68.8556 49.433 67.0292 48.937C65.2029 48.4409 63.433 47.6969 61.7194 46.7048L91.3464 17.0777C92.3385 18.7913 93.0826 20.5613 93.5786 22.3876C94.0747 24.2139 94.3227 26.0966 94.3227 28.0357C94.3227 34.0333 92.2145 39.1402 87.9982 43.3565C83.7818 47.5729 78.6749 49.681 72.6773 49.681ZM50.085 42.9169L54.0082 38.9936C53.0161 37.2801 52.2721 35.5101 51.776 33.6838C51.28 31.8574 51.032 29.9747 51.032 28.0357C51.032 22.0381 53.1401 16.9312 57.3565 12.7148C61.5728 8.49851 66.6798 6.39034 72.6773 6.39034C74.6164 6.39034 76.4991 6.63836 78.3254 7.1344C80.1517 7.63044 81.9217 8.3745 83.6353 9.36658L87.5585 5.44336C85.3489 4.00033 82.9927 2.89552 80.4899 2.12891C77.9872 1.36231 75.383 0.979004 72.6773 0.979004C68.9345 0.979004 65.4171 1.68924 62.1252 3.10972C58.8333 4.53019 55.9698 6.45798 53.5347 8.89308C51.0996 11.3282 49.1718 14.1917 47.7514 17.4836C46.3309 20.7755 45.6206 24.2928 45.6206 28.0357C45.6206 30.7414 46.0039 33.3456 46.7705 35.8483C47.5372 38.351 48.642 40.7072 50.085 42.9169Z" fill="#45A1D5"/>
</svg>
