<svg width="266" height="150" viewBox="0 0 266 150" fill="none" xmlns="http://www.w3.org/2000/svg">
<path d="M19.8427 145.913C19.8427 145.913 20.3612 145.09 21.3983 143.443C22.4354 141.796 23.808 139.599 25.5161 136.854C27.2852 134.109 29.2374 130.998 31.3725 127.521C33.5687 124.043 35.7954 120.474 38.0526 116.814C40.3707 113.154 42.5974 109.585 44.7326 106.108C46.9287 102.631 48.8809 99.5194 50.589 96.7742C52.3581 94.029 53.7613 91.8328 54.7983 90.1857C55.8354 88.5385 56.354 87.715 56.354 87.715L57.8181 91.3753H33.5687C32.2876 91.3753 30.9455 91.1007 29.5424 90.5517C28.2003 89.9417 27.0412 89.1486 26.0651 88.1725C25.1501 87.1354 24.6925 86.0069 24.6925 84.7868V75.1785H36.863V76.4596C36.863 77.8017 37.0765 78.5033 37.5035 78.5643C37.9305 78.5643 38.6931 78.5643 39.7912 78.5643H77.2176L41.7128 134.567L40.9808 133.102H77.126V145.913H19.8427Z" fill="white"/>
<path d="M81.306 78.5643H127.243V91.3753H94.5746V105.742H123.491V118.553H94.5746V133.102H128.524V145.913H81.306V78.5643Z" fill="white"/>
<path d="M153.506 78.5643C157.716 78.5643 161.468 79.1133 164.762 80.2114C168.056 81.2485 170.801 82.7736 172.997 84.7868C175.255 86.7389 176.963 89.1181 178.122 91.9243C179.281 94.6695 179.861 97.7807 179.861 101.258C179.861 104.003 179.433 106.748 178.579 109.494C177.786 112.239 176.444 114.74 174.553 116.997C172.723 119.254 170.283 121.085 167.233 122.488C164.182 123.83 160.4 124.501 155.886 124.501H146.369V145.913H133.1V78.5643H153.506ZM155.794 111.69C157.807 111.69 159.485 111.354 160.827 110.683C162.169 110.012 163.206 109.158 163.938 108.121C164.731 107.084 165.28 106.016 165.585 104.918C165.951 103.759 166.134 102.692 166.134 101.716C166.134 100.983 166.012 100.068 165.768 98.9703C165.585 97.8112 165.158 96.6522 164.487 95.4931C163.816 94.334 162.779 93.3579 161.376 92.5648C160.034 91.7718 158.204 91.3753 155.886 91.3753H146.369V111.69H155.794ZM168.239 119.925L184.893 145.913H169.429L152.408 120.291L168.239 119.925Z" fill="white"/>
<path d="M194.104 150L201.927 142.177C204.735 144.011 207.73 145.415 210.911 146.389C214.091 147.364 217.401 147.851 220.84 147.851C225.597 147.851 230.067 146.948 234.251 145.143C238.435 143.337 242.074 140.887 245.169 137.793C248.264 134.698 250.714 131.058 252.519 126.875C254.324 122.691 255.227 118.221 255.227 113.464C255.227 110.025 254.74 106.715 253.766 103.534C252.791 100.354 251.387 97.359 249.553 94.5507L257.376 86.7276L252.476 81.8275L189.204 145.1L194.104 150ZM220.84 140.973C218.376 140.973 215.983 140.658 213.662 140.028C211.341 139.397 209.091 138.452 206.913 137.191L244.567 99.5368C245.828 101.715 246.774 103.964 247.404 106.285C248.034 108.606 248.35 110.999 248.35 113.464C248.35 121.086 245.67 127.577 240.312 132.935C234.953 138.294 228.462 140.973 220.84 140.973ZM192.127 132.377L197.113 127.39C195.852 125.213 194.906 122.963 194.276 120.642C193.645 118.321 193.33 115.928 193.33 113.464C193.33 105.841 196.01 99.3506 201.368 93.9919C206.727 88.6333 213.217 85.9539 220.84 85.9539C223.304 85.9539 225.697 86.2691 228.018 86.8996C230.339 87.53 232.589 88.4756 234.767 89.7365L239.753 84.7504C236.945 82.9164 233.95 81.5123 230.769 80.5379C227.588 79.5636 224.279 79.0765 220.84 79.0765C216.083 79.0765 211.613 79.9791 207.429 81.7845C203.245 83.5898 199.606 86.0399 196.511 89.1347C193.416 92.2296 190.966 95.8689 189.161 100.053C187.355 104.236 186.453 108.707 186.453 113.464C186.453 116.902 186.94 120.212 187.914 123.393C188.889 126.574 190.293 129.568 192.127 132.377Z" fill="white"/>
<path d="M55.4483 66.6171C54.7162 67.2271 53.3436 68.0507 51.3305 69.0878C49.3783 70.1248 46.9686 71.0399 44.1014 71.833C41.2342 72.626 38.0619 72.9921 34.5847 72.9311C29.2773 72.8091 24.5189 71.8635 20.3096 70.0943C16.1613 68.2642 12.623 65.7935 9.69478 62.6823C6.82756 59.571 4.63139 56.0023 3.10628 51.976C1.58116 47.9497 0.818604 43.6488 0.818604 39.0735C0.818604 33.9491 1.58116 29.2517 3.10628 24.9814C4.6924 20.7111 6.91907 17.0203 9.78629 13.9091C12.7145 10.7978 16.1918 8.38814 20.2181 6.68001C24.2444 4.97188 28.6977 4.11782 33.5781 4.11782C38.0924 4.11782 42.0883 4.72786 45.5655 5.94795C49.0428 7.16804 51.8795 8.47964 54.0757 9.88275L48.8598 22.4192C47.3347 21.2601 45.291 20.0705 42.7288 18.8504C40.2276 17.5693 37.3299 16.9288 34.0356 16.9288C31.4734 16.9288 29.0028 17.4778 26.6236 18.5759C24.3054 19.613 22.2312 21.1076 20.4011 23.0598C18.632 25.0119 17.2289 27.2996 16.1918 29.9228C15.1547 32.485 14.6362 35.2912 14.6362 38.3414C14.6362 41.5747 15.0937 44.5334 16.0088 47.2176C16.9848 49.9018 18.3574 52.22 20.1266 54.1721C21.8957 56.0633 24.0004 57.5274 26.4406 58.5645C28.9418 59.6015 31.748 60.1201 34.8592 60.1201C38.4585 60.1201 41.5392 59.5405 44.1014 58.3815C46.6636 57.2224 48.6158 56.0023 49.9579 54.7212L55.4483 66.6171Z" fill="white"/>
<path d="M74.323 73.2971C70.6017 73.2971 67.216 72.565 64.1657 71.1009C61.1765 69.5758 58.7973 67.2576 57.0282 64.1464C55.2591 61.0351 54.3745 57.0699 54.3745 52.2505C54.3745 47.7361 55.2896 43.8318 57.1197 40.5376C58.9498 37.2433 61.3595 34.7116 64.3488 32.9425C67.338 31.1124 70.5102 30.1973 73.8655 30.1973C77.8308 30.1973 80.82 30.8684 82.8332 32.2105C84.9073 33.4916 86.6155 34.9252 87.9576 36.5113L87.4085 38.0669L88.5981 32.2105H100.494V72.199H87.683V63.5058L88.6896 66.2511C88.5676 66.2511 88.2016 66.6171 87.5915 67.3491C86.9815 68.0202 86.0664 68.8438 84.8463 69.8198C83.6872 70.7349 82.2231 71.528 80.454 72.199C78.7459 72.9311 76.7022 73.2971 74.323 73.2971ZM77.9833 62.8653C79.5084 62.8653 80.881 62.6518 82.1011 62.2247C83.3212 61.7367 84.3888 61.0657 85.3039 60.2116C86.2189 59.2965 87.012 58.1679 87.683 56.8258V47.0346C87.195 45.6925 86.4629 44.5639 85.4869 43.6488C84.5108 42.6728 83.3517 41.9407 82.0096 41.4527C80.6675 40.9036 79.1729 40.6291 77.5258 40.6291C75.6956 40.6291 73.9875 41.1171 72.4014 42.0932C70.8763 43.0083 69.6562 44.2894 68.7411 45.9365C67.826 47.5836 67.3685 49.4748 67.3685 51.6099C67.3685 53.7451 67.8565 55.6667 68.8326 57.3749C69.8087 59.083 71.0898 60.4251 72.6759 61.4012C74.323 62.3773 76.0922 62.8653 77.9833 62.8653Z" fill="white"/>
<path d="M116.074 32.2105L117.263 43.1913L116.989 41.5442C118.148 39.165 119.734 37.1518 121.747 35.5047C123.76 33.7966 125.743 32.485 127.695 31.5699C129.708 30.6548 131.233 30.1973 132.271 30.1973L131.63 43.0083C128.641 42.6423 126.079 43.1303 123.943 44.4724C121.808 45.8145 120.161 47.5836 119.002 49.7798C117.843 51.976 117.263 54.2331 117.263 56.5513V72.199H104.544V32.2105H116.074Z" fill="white"/>
<path d="M159.188 73.2971C155.833 73.2971 152.996 72.748 150.678 71.65C148.421 70.4909 146.438 68.9963 144.73 67.1661L145.736 64.4209V72.199H132.925V0H145.645V39.0735V34.9557C147.231 33.6136 149.336 32.485 151.959 31.5699C154.582 30.6548 157.571 30.1973 160.927 30.1973C164.404 30.1973 167.576 31.0209 170.443 32.668C173.31 34.3151 175.598 36.7248 177.306 39.897C179.075 43.0083 179.96 46.8211 179.96 51.3354C179.96 55.8498 178.984 59.7541 177.032 63.0483C175.141 66.3426 172.609 68.8743 169.437 70.6434C166.264 72.4125 162.848 73.2971 159.188 73.2971ZM156.351 62.4993C158.242 62.4993 159.981 62.0112 161.567 61.0352C163.214 60.0591 164.526 58.717 165.502 57.0088C166.478 55.3007 166.966 53.3791 166.966 51.2439C166.966 49.1087 166.478 47.2176 165.502 45.5705C164.526 43.9234 163.214 42.6423 161.567 41.7272C159.981 40.7511 158.242 40.2631 156.351 40.2631C154.704 40.2631 153.148 40.5376 151.684 41.0866C150.281 41.5747 149.061 42.3067 148.024 43.2828C147.048 44.1979 146.285 45.3265 145.736 46.6686V56.4598C146.468 57.8019 147.322 58.9305 148.299 59.8456C149.336 60.6996 150.525 61.3707 151.867 61.8587C153.209 62.2857 154.704 62.4993 156.351 62.4993Z" fill="white"/>
<path d="M177.766 51.7014C177.766 47.6141 178.712 43.9538 180.603 40.7206C182.555 37.4874 185.27 34.9557 188.747 33.1255C192.224 31.2344 196.22 30.2888 200.734 30.2888C205.31 30.2888 209.275 31.2344 212.63 33.1255C215.985 34.9557 218.548 37.4874 220.317 40.7206C222.147 43.9538 223.062 47.6141 223.062 51.7014C223.062 55.7887 222.147 59.4795 220.317 62.7738C218.548 66.007 215.985 68.5692 212.63 70.4604C209.275 72.3515 205.249 73.2971 200.551 73.2971C196.159 73.2971 192.224 72.443 188.747 70.7349C185.331 69.0268 182.646 66.5561 180.694 63.3228C178.742 60.0896 177.766 56.2158 177.766 51.7014ZM190.668 51.7929C190.668 53.8671 191.095 55.7583 191.95 57.4664C192.804 59.1135 193.963 60.4251 195.427 61.4012C196.891 62.3773 198.538 62.8653 200.368 62.8653C202.381 62.8653 204.12 62.3773 205.584 61.4012C207.048 60.4251 208.177 59.1135 208.97 57.4664C209.763 55.7583 210.159 53.8671 210.159 51.7929C210.159 49.6578 209.763 47.7666 208.97 46.1195C208.177 44.4724 207.048 43.1608 205.584 42.1847C204.12 41.2086 202.381 40.7206 200.368 40.7206C198.538 40.7206 196.891 41.2086 195.427 42.1847C193.963 43.1608 192.804 44.4724 191.95 46.1195C191.095 47.7666 190.668 49.6578 190.668 51.7929Z" fill="white"/>
<path d="M235.625 32.2105L236.631 39.348L236.448 38.7075C237.851 36.2063 239.834 34.1931 242.396 32.668C244.959 31.0819 248.1 30.2888 251.822 30.2888C255.604 30.2888 258.746 31.4174 261.247 33.6746C263.809 35.8707 265.121 38.738 265.182 42.2762V72.199H252.371V47.0346C252.31 45.2655 251.822 43.8623 250.906 42.8253C250.052 41.7272 248.588 41.1781 246.514 41.1781C244.562 41.1781 242.854 41.8187 241.39 43.0998C239.926 44.3809 238.797 46.1195 238.004 48.3157C237.211 50.5119 236.814 53.0435 236.814 55.9108V72.199H224.003V32.2105H235.625Z" fill="white"/>
</svg>
