<svg width="89" height="50" viewBox="0 0 89 50" fill="none" xmlns="http://www.w3.org/2000/svg">
<path d="M6.34135 48.6378C6.34135 48.6378 6.5142 48.3633 6.85989 47.8142C7.20559 47.2652 7.66312 46.5331 8.2325 45.6181C8.82221 44.703 9.47293 43.6659 10.1846 42.5068C10.9167 41.3478 11.6589 40.1582 12.4113 38.9381C13.184 37.718 13.9263 36.5284 14.638 35.3693C15.37 34.2102 16.0208 33.1731 16.5901 32.2581C17.1798 31.343 17.6476 30.6109 17.9932 30.0619C18.3389 29.5128 18.5118 29.2383 18.5118 29.2383L18.9998 30.4584H10.9167C10.4897 30.4584 10.0423 30.3669 9.5746 30.1839C9.12723 29.9806 8.74087 29.7162 8.41551 29.3908C8.11049 29.0451 7.95798 28.669 7.95798 28.2623V25.0595H12.0148V25.4865C12.0148 25.9339 12.086 26.1678 12.2283 26.1881C12.3706 26.1881 12.6248 26.1881 12.9909 26.1881H25.4663L13.6314 44.8555L13.3874 44.3675H25.4358V48.6378H6.34135Z" fill="#45A1D5"/>
<path d="M26.8291 26.1881H42.1413V30.4584H31.252V35.2473H40.8907V39.5176H31.252V44.3675H42.5683V48.6378H26.8291V26.1881Z" fill="#45A1D5"/>
<path d="M50.896 26.1881C52.2991 26.1881 53.5497 26.3711 54.6477 26.7371C55.7458 27.0828 56.6609 27.5912 57.393 28.2623C58.1453 28.913 58.7147 29.706 59.1011 30.6414C59.4874 31.5565 59.6806 32.5936 59.6806 33.7527C59.6806 34.6677 59.5383 35.5828 59.2536 36.4979C58.9892 37.4129 58.5419 38.2467 57.9115 38.9991C57.3014 39.7515 56.4881 40.3615 55.4713 40.8292C54.4546 41.2766 53.1938 41.5003 51.689 41.5003H48.5168V48.6378H44.0939V26.1881H50.896ZM51.6585 37.2299C52.3296 37.2299 52.8888 37.1181 53.3361 36.8944C53.7835 36.6707 54.1292 36.386 54.3732 36.0403C54.6376 35.6947 54.8206 35.3388 54.9223 34.9728C55.0443 34.5864 55.1053 34.2305 55.1053 33.9052C55.1053 33.6612 55.0646 33.3561 54.9833 32.9901C54.9223 32.6037 54.7799 32.2174 54.5562 31.831C54.3326 31.4447 53.9869 31.1193 53.5192 30.855C53.0718 30.5906 52.4617 30.4584 51.689 30.4584H48.5168V37.2299H51.6585ZM55.8068 39.9751L61.3583 48.6378H56.2034L50.5299 40.0972L55.8068 39.9751Z" fill="#45A1D5"/>
<path d="M64.4284 50L67.0361 47.3923C67.9722 48.0036 68.9704 48.4717 70.0307 48.7965C71.091 49.1212 72.1942 49.2836 73.3405 49.2836C74.9261 49.2836 76.4162 48.9827 77.8108 48.3809C79.2054 47.7792 80.4185 46.9625 81.4501 45.9309C82.4817 44.8992 83.2984 43.6861 83.9002 42.2915C84.5019 40.897 84.8028 39.4068 84.8028 37.8212C84.8028 36.675 84.6404 35.5717 84.3157 34.5115C83.9909 33.4512 83.5229 32.453 82.9115 31.5169L85.5192 28.9092L83.8858 27.2758L62.7951 48.3666L64.4284 50ZM73.3405 46.9911C72.519 46.9911 71.7214 46.8861 70.9477 46.6759C70.174 46.4658 69.4241 46.1506 68.6982 45.7303L81.2495 33.179C81.6698 33.9049 81.985 34.6547 82.1951 35.4284C82.4053 36.2022 82.5104 36.9997 82.5104 37.8212C82.5104 40.362 81.6172 42.5256 79.831 44.3118C78.0448 46.098 75.8813 46.9911 73.3405 46.9911ZM63.7694 44.1255L65.4314 42.4635C65.0111 41.7375 64.6959 40.9877 64.4858 40.214C64.2756 39.4403 64.1705 38.6427 64.1705 37.8212C64.1705 35.2804 65.0637 33.1169 66.8499 31.3306C68.6361 29.5444 70.7996 28.6513 73.3405 28.6513C74.1619 28.6513 74.9595 28.7564 75.7332 28.9665C76.5069 29.1767 77.2568 29.4919 77.9827 29.9122L79.6448 28.2501C78.7087 27.6388 77.7105 27.1708 76.6502 26.846C75.5899 26.5212 74.4867 26.3588 73.3405 26.3588C71.7548 26.3588 70.2647 26.6597 68.8701 27.2615C67.4755 27.8633 66.2624 28.68 65.2308 29.7116C64.1992 30.7432 63.3825 31.9563 62.7807 33.3509C62.179 34.7455 61.8781 36.2356 61.8781 37.8212C61.8781 38.9675 62.0404 40.0707 62.3652 41.131C62.69 42.1913 63.158 43.1894 63.7694 44.1255Z" fill="#45A1D5"/>
<path d="M18.2099 22.2057C17.9659 22.409 17.5083 22.6836 16.8373 23.0293C16.1866 23.3749 15.3833 23.68 14.4276 23.9443C13.4719 24.2087 12.4144 24.3307 11.2554 24.3104C9.48622 24.2697 7.9001 23.9545 6.497 23.3648C5.11422 22.7547 3.9348 21.9312 2.95873 20.8941C2.00299 19.857 1.27093 18.6674 0.762558 17.3253C0.254186 15.9832 0 14.5496 0 13.0245C0 11.3164 0.254186 9.75058 0.762558 8.32714C1.29127 6.90369 2.03349 5.67343 2.98923 4.63635C3.9653 3.59927 5.12439 2.79605 6.46649 2.22667C7.8086 1.65729 9.29304 1.37261 10.9198 1.37261C12.4246 1.37261 13.7565 1.57595 14.9156 1.98265C16.0747 2.38935 17.0203 2.82655 17.7524 3.29425L16.0137 7.47307C15.5053 7.08671 14.8241 6.69018 13.9701 6.28348C13.1363 5.85645 12.1704 5.64293 11.0723 5.64293C10.2183 5.64293 9.39472 5.82594 8.60166 6.19197C7.82893 6.53767 7.13754 7.03587 6.5275 7.68659C5.93779 8.3373 5.47008 9.09986 5.12439 9.97426C4.7787 10.8283 4.60585 11.7637 4.60585 12.7805C4.60585 13.8582 4.75836 14.8445 5.06339 15.7392C5.38874 16.6339 5.84628 17.4067 6.43599 18.0574C7.0257 18.6878 7.72726 19.1758 8.54065 19.5215C9.37438 19.8672 10.3098 20.04 11.3469 20.04C12.5466 20.04 13.5735 19.8468 14.4276 19.4605C15.2817 19.0741 15.9324 18.6674 16.3797 18.2404L18.2099 22.2057Z" fill="#6C757D"/>
<path d="M24.5015 24.4324C23.261 24.4324 22.1325 24.1883 21.1157 23.7003C20.1193 23.1919 19.3262 22.4192 18.7365 21.3821C18.1468 20.3451 17.852 19.0233 17.852 17.4168C17.852 15.912 18.157 14.6106 18.767 13.5125C19.3771 12.4144 20.1803 11.5705 21.1767 10.9808C22.1731 10.3708 23.2305 10.0658 24.349 10.0658C25.6707 10.0658 26.6671 10.2895 27.3382 10.7368C28.0296 11.1639 28.5989 11.6417 29.0463 12.1704L28.8633 12.689L29.2598 10.7368H33.2251V24.0663H28.9548V21.1686L29.2903 22.0837C29.2497 22.0837 29.1277 22.2057 28.9243 22.4497C28.721 22.6734 28.4159 22.9479 28.0092 23.2733C27.6229 23.5783 27.1348 23.8427 26.5451 24.0663C25.9757 24.3104 25.2945 24.4324 24.5015 24.4324ZM25.7216 20.9551C26.2299 20.9551 26.6875 20.8839 27.0942 20.7416C27.5009 20.5789 27.8567 20.3552 28.1618 20.0705C28.4668 19.7655 28.7311 19.3893 28.9548 18.9419V15.6782C28.7921 15.2308 28.5481 14.8546 28.2228 14.5496C27.8974 14.2243 27.511 13.9802 27.0637 13.8176C26.6163 13.6345 26.1181 13.543 25.5691 13.543C24.959 13.543 24.3896 13.7057 23.8609 14.0311C23.3525 14.3361 22.9459 14.7631 22.6408 15.3122C22.3358 15.8612 22.1833 16.4916 22.1833 17.2033C22.1833 17.915 22.346 18.5556 22.6713 19.125C22.9967 19.6943 23.4237 20.1417 23.9524 20.4671C24.5015 20.7924 25.0912 20.9551 25.7216 20.9551Z" fill="#6C757D"/>
<path d="M38.4184 10.7368L38.8149 14.3971L38.7234 13.8481C39.1098 13.055 39.6385 12.3839 40.3095 11.8349C40.9806 11.2655 41.6415 10.8283 42.2922 10.5233C42.9632 10.2183 43.4716 10.0658 43.8173 10.0658L43.6038 14.3361C42.6074 14.2141 41.7533 14.3768 41.0416 14.8241C40.3299 15.2715 39.7808 15.8612 39.3945 16.5933C39.0081 17.3253 38.8149 18.0777 38.8149 18.8504V24.0663H34.5751V10.7368H38.4184Z" fill="#6C757D"/>
<path d="M52.7898 24.4324C51.6713 24.4324 50.7258 24.2493 49.953 23.8833C49.2006 23.497 48.5398 22.9988 47.9704 22.3887L48.3059 21.4736V24.0663H44.0356V0H48.2754V13.0245V11.6519C48.8041 11.2045 49.5057 10.8283 50.3801 10.5233C51.2545 10.2183 52.2509 10.0658 53.3693 10.0658C54.5284 10.0658 55.5858 10.3403 56.5415 10.8893C57.4973 11.4384 58.2598 12.2416 58.8292 13.299C59.4189 14.3361 59.7138 15.607 59.7138 17.1118C59.7138 18.6166 59.3884 19.918 58.7377 21.0161C58.1073 22.1142 57.2634 22.9581 56.206 23.5478C55.1486 24.1375 54.0098 24.4324 52.7898 24.4324ZM51.8442 20.8331C52.4746 20.8331 53.0541 20.6704 53.5828 20.3451C54.1319 20.0197 54.5691 19.5723 54.8944 19.003C55.2198 18.4336 55.3825 17.793 55.3825 17.0813C55.3825 16.3696 55.2198 15.7392 54.8944 15.1902C54.5691 14.6411 54.1319 14.2141 53.5828 13.9091C53.0541 13.5837 52.4746 13.421 51.8442 13.421C51.2951 13.421 50.7766 13.5125 50.2886 13.6955C49.8209 13.8582 49.4142 14.1022 49.0685 14.4276C48.7431 14.7326 48.4889 15.1088 48.3059 15.5562V18.8199C48.5499 19.2673 48.8346 19.6435 49.16 19.9485C49.5057 20.2332 49.9022 20.4569 50.3496 20.6196C50.7969 20.7619 51.2951 20.8331 51.8442 20.8331Z" fill="#6C757D"/>
<path d="M58.9824 17.2338C58.9824 15.8714 59.2976 14.6513 59.928 13.5735C60.5787 12.4958 61.4836 11.6519 62.6427 11.0418C63.8018 10.4115 65.1337 10.0963 66.6385 10.0963C68.1636 10.0963 69.4854 10.4115 70.6038 11.0418C71.7223 11.6519 72.5763 12.4958 73.166 13.5735C73.7761 14.6513 74.0811 15.8714 74.0811 17.2338C74.0811 18.5963 73.7761 19.8265 73.166 20.9246C72.5763 22.0023 71.7223 22.8564 70.6038 23.4868C69.4854 24.1172 68.1433 24.4324 66.5775 24.4324C65.1134 24.4324 63.8018 24.1477 62.6427 23.5783C61.504 23.0089 60.6092 22.1854 59.9585 21.1076C59.3078 20.0299 58.9824 18.7386 58.9824 17.2338ZM63.2833 17.2643C63.2833 17.9557 63.4256 18.5861 63.7103 19.1555C63.995 19.7045 64.3814 20.1417 64.8694 20.4671C65.3574 20.7924 65.9065 20.9551 66.5165 20.9551C67.1876 20.9551 67.7671 20.7924 68.2551 20.4671C68.7432 20.1417 69.1194 19.7045 69.3837 19.1555C69.6481 18.5861 69.7803 17.9557 69.7803 17.2643C69.7803 16.5526 69.6481 15.9222 69.3837 15.3732C69.1194 14.8241 68.7432 14.3869 68.2551 14.0616C67.7671 13.7362 67.1876 13.5735 66.5165 13.5735C65.9065 13.5735 65.3574 13.7362 64.8694 14.0616C64.3814 14.3869 63.995 14.8241 63.7103 15.3732C63.4256 15.9222 63.2833 16.5526 63.2833 17.2643Z" fill="#6C757D"/>
<path d="M78.2687 10.7368L78.6043 13.116L78.5433 12.9025C79.011 12.0688 79.6718 11.3977 80.5259 10.8893C81.38 10.3606 82.4272 10.0963 83.6676 10.0963C84.9284 10.0963 85.9756 10.4725 86.8094 11.2249C87.6634 11.9569 88.1006 12.9127 88.121 14.0921V24.0663H83.8507V15.6782C83.8303 15.0885 83.6676 14.6208 83.3626 14.2751C83.0779 13.9091 82.5899 13.726 81.8985 13.726C81.2478 13.726 80.6784 13.9396 80.1904 14.3666C79.7023 14.7936 79.3261 15.3732 79.0618 16.1052C78.7974 16.8373 78.6653 17.6812 78.6653 18.6369V24.0663H74.3949V10.7368H78.2687Z" fill="#6C757D"/>
</svg>
